<?xml version="1.0" encoding="iso-8859-1"?>
<!-- Generator: Adobe Illustrator 18.0.0, SVG Export Plug-In . SVG Version: 6.00 Build 0)  -->
<!DOCTYPE svg PUBLIC "-//W3C//DTD SVG 1.1//EN" "http://www.w3.org/Graphics/SVG/1.1/DTD/svg11.dtd">
<svg version="1.1" id="Capa_1" xmlns="http://www.w3.org/2000/svg" xmlns:xlink="http://www.w3.org/1999/xlink" x="0px" y="0px"
	 viewBox="0 0 297 297" style="enable-background:new 0 0 297 297;" xml:space="preserve">
<g>
	<path d="M220.393,143.206c-2.651,0-5.251,1.068-7.127,2.943c-1.875,1.884-2.953,4.485-2.953,7.136c0,2.651,1.078,5.241,2.953,7.126
		c1.885,1.875,4.476,2.954,7.127,2.954c2.651,0,5.251-1.079,7.126-2.954c1.885-1.885,2.954-4.475,2.954-7.126
		c0-2.662-1.069-5.252-2.954-7.136C225.644,144.274,223.053,143.206,220.393,143.206z"/>
	<path d="M286.92,144.962H273.2c-10.366-23.23-31.479-42.959-59.356-55.416V70.09c0-4.988-3.648-9.225-8.58-9.967
		c-1.408-0.214-32.47-4.604-50.441,15.586c-3.144-0.167-6.245-0.252-9.267-0.252c-35.468,0-68.926,10.346-94.211,29.132
		c-10.531,7.824-19.155,16.733-25.707,26.409c-0.513-0.45-1.027-0.949-1.521-1.509c-3.696-4.189-4.788-9.771-3.338-17.067
		c1.085-5.46-2.462-10.766-7.922-11.851c-5.462-1.09-10.766,2.462-11.851,7.922c-4.212,21.194,5.589,34.204,15.13,40.668
		c-3.549,9.3-5.393,19.054-5.393,29.049c0,9.641,1.22,17.418,3.837,24.476c14.337,38.652,46.379,87.167,47.736,89.214
		c1.867,2.816,5.021,4.509,8.4,4.509h38.638c3.083,0,5.997-1.411,7.908-3.83c1.912-2.418,2.611-5.579,1.899-8.578l-1.232-5.188
		c17.524,2.772,35.962,2.866,53.603,0.243l-1.174,4.945c-0.713,2.999-0.013,6.16,1.899,8.578c1.912,2.419,4.825,3.83,7.908,3.83
		h40.233c3.654,0,7.022-1.978,8.802-5.169l40.204-72.06h17.519c5.566,0,10.08-4.513,10.08-10.08v-54.059
		C297,149.475,292.487,144.962,286.92,144.962z M276.841,199.022h-13.358c-3.654,0-7.022,1.978-8.802,5.169l-40.204,72.06h-21.562
		l1.847-7.775c0.812-3.42-0.216-7.015-2.713-9.489c-2.496-2.475-6.102-3.468-9.513-2.625c-11.929,2.949-24.372,4.444-36.981,4.444
		c-13.219,0-26.194-1.625-38.566-4.832c-3.423-0.885-7.059,0.085-9.583,2.558c-2.525,2.474-3.569,6.089-2.752,9.528l1.945,8.191
		H76.196c-8.208-12.848-31.61-50.627-42.717-80.574c-1.759-4.743-2.579-10.294-2.579-17.466c0-45.543,51.434-82.594,114.655-82.594
		c4.223,0,8.635,0.188,13.111,0.558c3.669,0.315,7.214-1.419,9.244-4.493c6.103-9.248,17.746-11.51,25.775-11.885v16.45
		c0,4.144,2.537,7.866,6.394,9.382c28.318,11.126,49.006,30.339,56.756,52.714c1.406,4.058,5.23,6.78,9.524,6.78h10.481V199.022z"/>
	<path d="M128.924,70.644c19.314,0,35.026-15.713,35.026-35.026S148.237,0.591,128.924,0.591S93.898,16.304,93.898,35.617
		S109.61,70.644,128.924,70.644z M128.924,20.75c8.197,0,14.867,6.67,14.867,14.867s-6.67,14.867-14.867,14.867
		s-14.867-6.67-14.867-14.867S120.726,20.75,128.924,20.75z"/>
</g>
<g>
</g>
<g>
</g>
<g>
</g>
<g>
</g>
<g>
</g>
<g>
</g>
<g>
</g>
<g>
</g>
<g>
</g>
<g>
</g>
<g>
</g>
<g>
</g>
<g>
</g>
<g>
</g>
<g>
</g>
</svg>
